<svg viewBox="0 0 1040 400" xmlns="http://www.w3.org/2000/svg"><path d="m0-1.23h1040v406.17h-1040z" fill="#fafafb"/><path d="m105.05 399.35c56.95-175.79 222-302.9 416.75-302.9s359.6 126.94 416.64 302.55" style="fill:none;stroke-width:2;stroke:#c4cdd5;opacity:.62;stroke-linecap:round;stroke-linejoin:round"/><circle cx="412.43" cy="114.45" fill="#f9fafb" r="29.59"/><circle cx="624.92" cy="115.3" fill="#f9fafb" r="29.59"/><circle cx="832.55" cy="227.44" fill="#f9fafb" r="29.59"/><path d="m422.63 132.74h-20.4a3.19 3.19 0 0 1 -3.19-3.19v-32.21a3.19 3.19 0 0 1 3.19-3.19h20.4a3.19 3.19 0 0 1 3.18 3.19v32.21a3.18 3.18 0 0 1 -3.18 3.19z" fill="none" stroke="#6cd9be" stroke-linecap="round" stroke-linejoin="round" stroke-width="2"/><path d="m411.15 98.62h2.55" fill="none" stroke="#6cd9be" stroke-linecap="round" stroke-linejoin="round" stroke-width="2"/><path d="m399.04 125.39h26.77" fill="none" stroke="#6cd9be" stroke-linecap="round" stroke-linejoin="round" stroke-width="2"/><circle cx="208.65" cy="227.82" fill="#f9fafb" r="29.59"/><g fill="none" stroke-linecap="round" stroke-linejoin="round" stroke-width="2"><path d="m638.87 121.76-9.55-2.76v-3a12.89 12.89 0 0 0 3.87-5.82 3.09 3.09 0 0 0 2.36-2.7 2.93 2.93 0 0 0 -1.83-3.46v-3.22c0-2.18-1.62-4.39-5-4.39l-1.08-2.29a1.22 1.22 0 0 0 -1.51-.58l-6.92 2.77a5.27 5.27 0 0 0 -3.06 4.52v3.17a2.93 2.93 0 0 0 -1.84 3.46 3.1 3.1 0 0 0 2.36 2.7 12.91 12.91 0 0 0 3.88 5.82v3l-9.55 2.78a5 5 0 0 0 -3.65 4.83v4.87h35.19v-4.87a5 5 0 0 0 -3.67-4.83z" stroke="#ffba2e"/><path d="m228.1 227.77a18.67 18.67 0 0 0 -18.7-18.71 19 19 0 0 0 -17.13 11.08" stroke="#43a0ff"/><path d="m190.83 209.06 1.44 11.08 11.08-1.44" stroke="#43a0ff"/><path d="m190.69 227.77a18.63 18.63 0 0 0 1 5.91" stroke="#43a0ff"/><path d="m200.76 244.37a18.88 18.88 0 0 1 -4.59-3.37" stroke="#43a0ff"/><path d="m209.4 246.48a18.68 18.68 0 0 0 5.91-1" stroke="#43a0ff"/><path d="m226 236.41a19.07 19.07 0 0 1 -3.37 4.59" stroke="#43a0ff"/><path d="m209.41 221.89v8.84h-9.47" stroke="#43a0ff"/><path d="m838.3 216.86-12.32-8.21-5.46 1.83 8.21 9.57" stroke="#8173cb"/><path d="m856.68 219.05a4.12 4.12 0 0 0 -5.2-2.61l-28.63 9.56-5.64-3.13-4.66 1.55 4.46 7.73h13.4l23.67-7.89a4.11 4.11 0 0 0 2.6-5.21z" stroke="#8173cb"/><path d="m833.35 231.16-3.2 16.06h6.18l8.19-19.78" stroke="#8173cb"/><path d="m816.36 291.12-62.31-.58v-84.14l-41.46.24v19.85l-58.52-.52-20.75 44.45v-27.71l-46.61-.35v53.87h-30.51v-25.91l-47.54-12.9v-42.39h-16.26v-23.86h-11.83v-11.92h-23.66v11.92h-11.83v23.86h-16.26v59.27l-33.33 26.79h-50.01v-109.92h-28.93v38.69l-49.19.45v65.46l-83.19.42.39 70.2-40.36-.61-.71 37.22h730.73l-.19-76.25h-57.67z" opacity=".62" stroke="#c4cdd5"/></g><path d="m309.5 405.57h-107.52v-74.72l107.3-43.73z" fill="#acd5ff"/><path d="m629.32 405.57h-107.52l.22-113.9h107.08z" fill="#fad8cf"/><path d="m841.62 405.57h-107.52l.22-113.9 107.3 79.27z" fill="#acd5ff"/><path d="m523.14 403h-107.49v-131.44l107.3.07z" fill="#ffe4b0"/><path d="m735.92 405.57h-107.51l.91-172.48 106.38.27z" fill="#d1ccec"/><path d="m416.56 403h-107.49l.19-164.18 107.3-30.97z" fill="#bcede1"/><rect fill="#1a8cff" height="27.11" rx="13.56" width="93.49" x="208.65" y="341.68"/><text fill="#fff" font-family="AvertaOP-Semibold, Averta OP" font-size="20.97" font-weight="600" transform="translate(217.39 361.53)">#</text><path d="m236.7 355.7h50.49" fill="#fff" stroke="#fff" stroke-linecap="round" stroke-linejoin="round" stroke-width="1.67"/><rect fill="#6cd9be" height="27.48" rx="13.74" width="94.76" x="316.79" y="273.16"/><text fill="#fff" font-family="AvertaOP-Semibold, Averta OP" font-size="21.26" font-weight="600" transform="translate(325.65 293.28)">#</text><path d="m345.22 287.37 27.61.2" fill="#fff" stroke="#fff" stroke-linecap="round" stroke-linejoin="round" stroke-width="1.82"/><rect fill="#8173cb" height="27.48" rx="13.74" width="94.76" x="634.78" y="267.42"/><text fill="#fff" font-family="AvertaOP-Semibold, Averta OP" font-size="21.26" font-weight="600" transform="translate(643.65 287.55)">#</text><path d="m663.21 281.64 27.61.2" fill="#fff" stroke="#fff" stroke-linecap="round" stroke-linejoin="round" stroke-width="1.82"/><rect fill="#ef7457" height="27.48" rx="13.74" width="94.76" x="422.48" y="354.22"/><text fill="#fff" font-family="AvertaOP-Semibold, Averta OP" font-size="21.26" font-weight="600" transform="translate(431.35 374.34)">#</text><path d="m450.91 368.44h51.17" fill="#fff" stroke="#fff" stroke-linecap="round" stroke-linejoin="round" stroke-width="1.82"/><path d="m763.38 403h-17.31v-89.07l17.31 13.97z" fill="#43a0ff" opacity=".37"/><rect fill="#ffb829" height="27.48" rx="13.74" width="201.37" x="422.48" y="307.78"/><text fill="#fff" font-family="AvertaOP-Semibold, Averta OP" font-size="21.26" font-weight="600" transform="translate(431.35 327.9)">#</text><path d="m450.91 322h51.17" fill="#fff" stroke="#fff" stroke-linecap="round" stroke-linejoin="round" stroke-width="1.82"/><path d="m514.69 322 25.79.2" fill="#fff" stroke="#fff" stroke-linecap="round" stroke-linejoin="round" stroke-width="1.82"/><rect fill="#1a8cff" height="27.48" rx="13.74" width="245.1" x="557.86" y="362.23"/><text fill="#fff" font-family="AvertaOP-Semibold, Averta OP" font-size="21.26" font-weight="600" transform="translate(566.72 382.35)">#</text><path d="m586.29 376.44h51.17" fill="#fff" stroke="#fff" stroke-linecap="round" stroke-linejoin="round" stroke-width="1.82"/><path d="m650.07 376.44 25.79.2" fill="#fff" stroke="#fff" stroke-linecap="round" stroke-linejoin="round" stroke-width="1.82"/><path d="m234.09 403h-17.31v-12.47a8.66 8.66 0 0 1 8.66-8.65 8.65 8.65 0 0 1 8.65 8.65z" fill="#43a0ff" opacity=".51"/><path d="m262.05 403h-17.31v-12.47a8.66 8.66 0 0 1 8.66-8.65 8.65 8.65 0 0 1 8.65 8.65z" fill="#43a0ff" opacity=".51"/><path d="m290 403h-17.3v-12.47a8.66 8.66 0 0 1 8.66-8.65 8.65 8.65 0 0 1 8.65 8.65z" fill="#43a0ff" opacity=".51"/><path d="m319.52 246.87h17.31v17.31h-17.31z" fill="#d6f4ed"/><path d="m487.77 282.47h17.31v17.31h-17.31z" fill="#ffc95c" opacity=".46"/><path d="m461.21 281.89h17.31v17.31h-17.31z" fill="#ffc95c" opacity=".46"/><path d="m434.65 281.89h17.31v17.31h-17.31z" fill="#ffc95c" opacity=".46"/><path d="m540.48 370a8.66 8.66 0 0 1 8.66 8.66v24.34a0 0 0 0 1 0 0h-17.32a0 0 0 0 1 0 0v-24.38a8.66 8.66 0 0 1 8.66-8.62z" fill="#f6b2a1" opacity=".68"/><path d="m708.59 240.65h17.31v17.31h-17.31z" fill="#b9b1e2" opacity=".76"/><path d="m319.52 320.91h86.52v45.48h-86.52z" fill="#d6f4ed"/><path d="m319.52 376.45h86.52v26.55h-86.52z" fill="#d6f4ed"/><path d="m629.11 222.38h106.61v10.72h-106.61z" fill="#beb7e4"/><path d="m644 310.58h19.09v43.86h-19.09z" fill="#b9b1e2" opacity=".76"/><path d="m672.87 310.58h19.09v43.86h-19.09z" fill="#b9b1e2" opacity=".76"/><path d="m701.74 310.58h19.09v43.86h-19.09z" fill="#b9b1e2" opacity=".76"/></svg>